<?xml version="1.0" encoding="iso-8859-1"?>
<!-- Generator: Adobe Illustrator 19.0.0, SVG Export Plug-In . SVG Version: 6.00 Build 0)  -->
<svg version="1.1" id="Capa_1" xmlns="http://www.w3.org/2000/svg" xmlns:xlink="http://www.w3.org/1999/xlink" x="0px" y="0px"
	 viewBox="0 0 512 512" style="enable-background:new 0 0 512 512;" xml:space="preserve">
<rect x="70.621" y="167.724" style="fill:#88B337;" width="370.759" height="344.276"/>
<polyline style="fill:#78A82F;" points="194.207,44.138 194.207,167.724 150.069,167.724 150.069,44.138 "/>
<polygon style="fill:#88B337;" points="361.931,44.138 150.069,44.138 194.207,0 317.793,0 "/>
<g>
	<polyline style="fill:#78A82F;" points="361.931,44.138 361.931,167.724 317.793,167.724 317.793,44.138 	"/>
	<path style="fill:#78A82F;" d="M70.621,460.27V512h370.759V167.724h-16.154C341.098,345.6,179.112,425.49,70.621,460.27z"/>
</g>
<g>
	<path style="fill:#FFFFFF;" d="M200.033,368.552l3.001,13.153l17.655-4.237l-8.828-35.31c-0.998-4.034-4.67-6.833-8.828-6.709
		h-35.31v17.655h20.921l-28.513,48.463c-2.489,4.193-1.103,9.613,3.09,12.094c1.359,0.812,2.922,1.236,4.502,1.236h70.621v-17.655
		h-55.172L200.033,368.552z"/>
	<path style="fill:#FFFFFF;" d="M351.868,401.567l-36.37-61.793l-15.183,8.828l28.513,48.64h-40.872l11.211-22.51l-15.713-7.945
		l-17.655,35.31c-1.739,3.399-1.103,7.53,1.589,10.24l26.483,26.483l12.535-12.535l-11.476-11.388h49.346
		c4.873,0,8.828-3.955,8.828-8.828C353.103,404.48,352.671,402.926,351.868,401.567z"/>
	<path style="fill:#FFFFFF;" d="M256,326.621h35.31c3.328-0.009,6.365-1.889,7.857-4.855l17.655-35.31l-15.713-7.945l-9.799,19.862
		l-27.542-46.874c-2.489-4.193-7.901-5.579-12.094-3.09c-1.271,0.75-2.33,1.818-3.09,3.09l-36.37,61.793l15.183,8.828L256,273.655
		l20.921,35.31H256V326.621z"/>
</g>
<g>
</g>
<g>
</g>
<g>
</g>
<g>
</g>
<g>
</g>
<g>
</g>
<g>
</g>
<g>
</g>
<g>
</g>
<g>
</g>
<g>
</g>
<g>
</g>
<g>
</g>
<g>
</g>
<g>
</g>
</svg>
